<svg width="115" height="30" viewBox="0 0 115 30" fill="none" xmlns="http://www.w3.org/2000/svg">
<path d="M0.1875 29H10.5781C17.375 29 20.1875 25.6797 20.1875 21.3438C20.1875 16.8125 17.1211 14.2344 14.4062 14.0391V14C16.8672 13.3359 19.0547 11.5977 19.0547 7.86719C19.0547 3.66797 16.2617 0.25 10.2266 0.25H0.1875V29ZM3.66406 25.9141V15.9141H10.7344C14.5039 15.9141 16.8672 18.4336 16.8672 21.3438C16.8672 23.8828 15.1289 25.9141 10.5781 25.9141H3.66406ZM3.66406 12.8672V3.33594H10.2266C14.0547 3.33594 15.7344 5.36719 15.7344 7.86719C15.7344 10.9141 13.2734 12.8672 10.1484 12.8672H3.66406ZM23.3813 29H26.6625V16.3047C26.6625 12.8086 28.6352 11.2656 30.9203 11.2656C31.8773 11.2656 32.6781 11.4219 32.9516 11.5V8.17969C32.6781 8.14062 32.1508 8.0625 31.5453 8.0625C28.9672 8.0625 27.3461 9.48828 26.5844 11.6172H26.5063V8.375H23.3813V29ZM43.3719 29.3125C49.1141 29.3125 53.1375 24.8984 53.1375 18.7266C53.1375 12.4766 49.0945 8.0625 43.3719 8.0625C37.6492 8.0625 33.6063 12.4766 33.6063 18.7266C33.6063 24.8984 37.6492 29.3125 43.3719 29.3125ZM43.3719 26.3047C39.6219 26.3047 36.9461 23.1797 36.9266 18.7266C36.907 14.2148 39.5828 11.0312 43.3719 11.0312C47.1414 11.0312 49.8172 14.2148 49.8172 18.7266C49.8172 23.1797 47.1219 26.3047 43.3719 26.3047ZM65.3156 29.3125C71.0578 29.3125 75.0812 24.8984 75.0812 18.7266C75.0812 12.4766 71.0383 8.0625 65.3156 8.0625C59.593 8.0625 55.55 12.4766 55.55 18.7266C55.55 24.8984 59.593 29.3125 65.3156 29.3125ZM65.3156 26.3047C61.5656 26.3047 58.8898 23.1797 58.8703 18.7266C58.8508 14.2148 61.5266 11.0312 65.3156 11.0312C69.0852 11.0312 71.7609 14.2148 71.7609 18.7266C71.7609 23.1797 69.0656 26.3047 65.3156 26.3047ZM78.1188 29H81.4V21.4023L83.7242 19.293L91.7906 29H96.0094L86.2633 17.2031L95.3453 8.375H91.2438L81.8297 17.4766H81.4V0.25H78.1188V29ZM105.844 29.3125C110.258 29.3125 113.773 26.6953 114.555 22.75H111.234C110.609 24.8984 108.402 26.3047 105.844 26.3047C102.094 26.3047 99.8281 23.2773 99.7891 19.625H114.867V18.7266C114.867 12.4766 111.508 8.0625 105.766 8.0625C100.062 8.0625 96.3516 12.4766 96.3516 18.7266C96.3516 24.9375 100.102 29.3125 105.844 29.3125ZM99.8086 16.8125C100.043 13.7852 102.172 11.0312 105.688 11.0312C108.93 11.0312 111.352 13.375 111.469 16.8125H99.8086Z" fill="#262626"/>
</svg>
