<svg width="390" height="160" viewBox="0 0 390 160" fill="none" xmlns="http://www.w3.org/2000/svg">
<path d="M61.4135 50H51.125C50.5727 50 50.125 50.4477 50.125 51V70.387L61.4135 50Z" fill="#262626"/>
<path d="M50.125 76.6227C50.1575 76.6241 50.1903 76.6249 50.2234 76.6249H65.9092C67.137 76.6249 68.1017 77.6738 67.997 78.895L66.6397 94.7247C66.4468 96.9741 69.4673 97.8909 70.5614 95.915L86.8605 66.4787C87.6324 65.0846 86.6223 63.3751 85.0266 63.3751H69.3408C68.113 63.3751 67.1483 62.3262 67.253 61.1051L68.2052 50H84.0341C98.6203 50 105.159 68.3465 93.8778 77.6212L85.059 84.8716C84.4814 85.3465 84.3677 86.1883 84.7984 86.8003L100.016 108.424C100.483 109.087 100.009 110 99.1985 110H51.125C50.5727 110 50.125 109.552 50.125 109V76.6227Z" fill="#262626"/>
<path d="M221.479 82.4805V97.6416H229.853V80.6196C229.853 78.6128 229.416 76.8613 228.54 75.3652C227.701 73.8325 226.497 72.6465 224.928 71.8076C223.358 70.9316 221.534 70.4937 219.454 70.4937C217.411 70.4937 215.604 70.9316 214.036 71.8076C213.619 72.0303 213.227 72.2793 212.859 72.5537C212.66 72.7017 212.469 72.8574 212.284 73.0205V59H203.91V97.6416H212.284V82.4805C212.284 81.5684 212.485 80.7656 212.887 80.0723C213.288 79.3423 213.835 78.7949 214.528 78.4302C215.222 78.0288 216.024 77.8281 216.936 77.8281C218.25 77.8281 219.327 78.2661 220.166 79.1416C221.042 79.981 221.479 81.0938 221.479 82.4805Z" fill="#262626"/>
<path fill-rule="evenodd" clip-rule="evenodd" d="M128.44 81.7144V97.6416H119.848V59H135.61C138.165 59 140.409 59.4927 142.343 60.4775C144.276 61.4263 145.791 62.7583 146.886 64.4731C147.98 66.188 148.527 68.1587 148.527 70.3843C148.527 72.6465 147.98 74.6353 146.886 76.3501C145.791 78.0288 144.259 79.3423 142.288 80.291C141.189 80.8203 139.982 81.2021 138.667 81.436L151.046 97.6416H140.865L129.34 81.7144H128.44ZM128.44 75.3652H134.571C136.286 75.3652 137.6 74.9272 138.512 74.0513C139.46 73.1758 139.935 71.9897 139.935 70.4937C139.935 69.1074 139.479 67.958 138.566 67.0459C137.654 66.1333 136.341 65.6772 134.626 65.6772H128.44V75.3652Z" fill="#262626"/>
<path fill-rule="evenodd" clip-rule="evenodd" d="M156.572 96.4907C158.835 97.6582 161.407 98.2422 164.289 98.2422C166.516 98.2422 168.559 97.8589 170.42 97.0927C172.28 96.3261 173.868 95.1767 175.182 93.6445L170.584 89.0468C169.781 89.9589 168.851 90.6523 167.792 91.1269C166.734 91.5644 165.549 91.7837 164.234 91.7837C162.812 91.7837 161.571 91.4917 160.513 90.9077C159.491 90.2876 158.689 89.4301 158.105 88.3354C157.921 87.9555 157.769 87.5512 157.647 87.122L176.714 87.0766C176.86 86.3833 176.951 85.7812 176.987 85.2705C177.013 85.0796 177.033 84.8935 177.05 84.7114C177.059 84.6211 177.065 84.5322 177.071 84.4443C177.08 84.312 177.087 84.1821 177.091 84.0547L177.095 83.914L177.097 83.7378C177.097 81.1469 176.514 78.8481 175.346 76.8413C174.215 74.8344 172.646 73.2656 170.639 72.1342C168.632 71.0034 166.314 70.4375 163.688 70.4375C160.987 70.4375 158.561 71.0395 156.408 72.2436C154.255 73.4477 152.54 75.1084 151.263 77.2246C150.022 79.3042 149.402 81.6762 149.402 84.3398C149.402 87.0034 150.041 89.3935 151.317 91.5097C152.595 93.6259 154.347 95.2866 156.572 96.4907ZM157.649 81.3735C157.69 81.2309 157.734 81.0913 157.781 80.9546C157.861 80.7241 157.95 80.5019 158.05 80.2895C158.598 79.1948 159.346 78.3554 160.294 77.7719C161.279 77.1513 162.429 76.8413 163.742 76.8413C164.982 76.8413 166.022 77.1152 166.862 77.6626L166.975 77.7299L167.087 77.8017C167.182 77.8647 167.273 77.9311 167.362 78.0005C167.449 78.0683 167.534 78.1396 167.616 78.2138C168.125 78.6748 168.53 79.2573 168.832 79.9614C169.016 80.3735 169.164 80.833 169.277 81.3403L157.649 81.3735Z" fill="#262626"/>
<path d="M191.81 98.2422C189.072 98.2422 186.591 97.6401 184.365 96.436C182.14 95.2319 180.389 93.5713 179.111 91.455C177.834 89.3388 177.195 86.9668 177.195 84.3398C177.195 81.6762 177.834 79.3042 179.111 77.2246C180.425 75.1084 182.194 73.4477 184.42 72.2436C186.646 71.0395 189.145 70.4375 191.919 70.4375C193.998 70.4375 195.895 70.8027 197.611 71.5322C198.485 71.8784 199.31 72.3154 200.084 72.8432C200.86 73.373 201.587 73.9941 202.263 74.707L196.899 80.0708C196.279 79.3774 195.549 78.8667 194.71 78.5381C194.331 78.3833 193.925 78.2651 193.489 78.1831C193.29 78.1455 193.086 78.1157 192.876 78.0937C192.659 78.0708 192.436 78.0561 192.206 78.0498C192.111 78.0468 192.016 78.0454 191.919 78.0454C191.623 78.0454 191.335 78.062 191.055 78.0947L190.904 78.1142L190.81 78.1279C190.713 78.143 190.616 78.1606 190.52 78.1797C189.864 78.3115 189.254 78.5405 188.689 78.8667C187.777 79.3774 187.048 80.1069 186.5 81.0556C185.989 81.9682 185.733 83.0444 185.733 84.2851C185.733 85.5258 185.989 86.6206 186.5 87.5688C187.048 88.5175 187.796 89.2656 188.744 89.813C189.692 90.3603 190.751 90.6342 191.919 90.6342C193.014 90.6342 193.98 90.4516 194.819 90.0869C195.695 89.6855 196.443 89.1381 197.063 88.4448L202.373 93.8086C200.986 95.268 199.417 96.3808 197.666 97.1474C195.914 97.8769 193.962 98.2422 191.81 98.2422Z" fill="#262626"/>
<path fill-rule="evenodd" clip-rule="evenodd" d="M244.155 98.1875C241.711 98.1875 239.521 97.5854 237.588 96.3808C235.69 95.1767 234.176 93.5351 233.045 91.455C231.95 89.3755 231.402 87.0034 231.402 84.3398C231.402 81.6762 231.95 79.3042 233.045 77.2246C234.176 75.1445 235.69 73.5029 237.588 72.2983C239.521 71.0942 241.711 70.4922 244.155 70.4922C245.943 70.4922 247.549 70.8388 248.972 71.5322C249.929 71.9868 250.768 72.559 251.489 73.2485V71.0395H259.699V97.6401H251.489V95.4848C250.996 95.9511 250.442 96.3642 249.828 96.7241C249.716 96.79 249.601 96.8545 249.484 96.917C249.335 96.9965 249.182 97.0732 249.026 97.1474C247.567 97.8408 245.943 98.1875 244.155 98.1875ZM245.853 90.6342C247.641 90.6342 249.081 90.0503 250.176 88.8828C251.271 87.6787 251.818 86.164 251.818 84.3398C251.818 83.7192 251.754 83.1352 251.626 82.5879C251.498 82.0405 251.307 81.5297 251.052 81.0556C250.577 80.1069 249.884 79.3774 248.972 78.8667C248.479 78.5586 247.94 78.3374 247.355 78.2026C246.9 78.0976 246.418 78.0454 245.907 78.0454C245.324 78.0454 244.772 78.1137 244.253 78.2505C243.936 78.3339 243.63 78.4428 243.337 78.5771C243.149 78.6631 242.966 78.7597 242.787 78.8667C241.911 79.3774 241.2 80.1069 240.652 81.0556C240.142 82.0044 239.887 83.0991 239.887 84.3398C239.887 85.5439 240.142 86.6206 240.652 87.5688C241.163 88.5175 241.875 89.2656 242.787 89.813C243.699 90.3603 244.721 90.6342 245.853 90.6342Z" fill="#262626"/>
<path d="M271.78 71.0395H263.406V97.6401H271.78V83.0263C271.78 81.311 272.182 80.0341 272.984 79.1948C273.824 78.3193 274.937 77.8813 276.323 77.8813C277.017 77.8813 277.637 77.9907 278.185 78.2099C278.731 78.4287 279.188 78.7387 279.553 79.1401L284.533 72.8457C283.804 72.0429 282.946 71.4594 281.961 71.0942C281.013 70.6928 279.899 70.4922 278.622 70.4922C275.703 70.4922 273.423 71.3501 271.78 73.0649V71.0395Z" fill="#262626"/>
<path fill-rule="evenodd" clip-rule="evenodd" d="M295.101 109.571C292.182 109.571 289.609 109.06 287.384 108.039C285.194 107.054 283.461 105.649 282.184 103.824L287.328 98.6797C288.277 99.811 289.336 100.668 290.503 101.252C291.707 101.835 293.148 102.127 294.827 102.127C296.907 102.127 298.53 101.617 299.698 100.595C300.902 99.5737 301.505 98.1323 301.505 96.2714V94.5913C300.935 95.0473 300.296 95.4428 299.589 95.7788C298.129 96.4721 296.506 96.8188 294.718 96.8188C292.272 96.8188 290.102 96.2353 288.204 95.0673C286.307 93.8999 284.811 92.3125 283.716 90.3056C282.621 88.2988 282.074 86.0732 282.074 83.6284C282.074 81.1469 282.621 78.9214 283.716 76.9506C284.811 74.9438 286.307 73.375 288.204 72.2436C290.102 71.0761 292.272 70.4922 294.718 70.4922C296.542 70.4922 298.166 70.8388 299.589 71.5322C299.72 71.5908 299.848 71.6518 299.974 71.7153C300.595 72.0288 301.16 72.3994 301.669 72.8271V71.0395H309.879V96.0527C309.879 98.7895 309.24 101.161 307.963 103.167C306.686 105.174 304.935 106.743 302.709 107.874C300.482 109.006 297.947 109.571 295.101 109.571ZM296.305 89.3755C297.473 89.3755 298.476 89.1196 299.315 88.6089C299.53 88.4834 299.732 88.3476 299.921 88.2021C300.5 87.7563 300.955 87.2168 301.285 86.5839C301.427 86.3232 301.547 86.0532 301.645 85.7734C301.774 85.4106 301.868 85.0312 301.926 84.6357C301.974 84.311 301.997 83.9751 301.997 83.6284C301.997 82.5337 301.76 81.5483 301.285 80.6728C300.848 79.7968 300.19 79.1035 299.315 78.5927C298.476 78.082 297.473 77.8266 296.305 77.8266C295.96 77.8266 295.628 77.8506 295.307 77.8979L295.139 77.9253L294.991 77.9526C294.673 78.0166 294.367 78.1049 294.074 78.2177C293.91 78.2807 293.75 78.3515 293.595 78.4297C293.493 78.4809 293.394 78.5351 293.295 78.5927C292.419 79.1035 291.744 79.7968 291.27 80.6728C291.022 81.1289 290.839 81.6147 290.721 82.1303C290.612 82.6045 290.558 83.104 290.558 83.6284C290.558 84.6499 290.795 85.6167 291.27 86.5293C291.744 87.4047 292.4 88.0981 293.24 88.6089C293.71 88.8833 294.223 89.0844 294.778 89.2114C295.256 89.3208 295.765 89.3755 296.305 89.3755Z" fill="#262626"/>
<path fill-rule="evenodd" clip-rule="evenodd" d="M319.019 96.4907C321.28 97.6582 323.853 98.2422 326.735 98.2422C328.961 98.2422 331.005 97.8589 332.865 97.0927C334.727 96.3261 336.313 95.1767 337.627 93.6445L333.029 89.0468C332.227 89.9589 331.297 90.6523 330.238 91.1269C329.181 91.5644 327.994 91.7837 326.681 91.7837C325.258 91.7837 324.017 91.4917 322.959 90.9077C322.229 90.4653 321.612 89.9018 321.106 89.2173C321.025 89.1084 320.948 88.9961 320.873 88.8808C320.759 88.7065 320.651 88.5244 320.551 88.3354C320.367 87.9555 320.214 87.5512 320.092 87.122L339.16 87.0766C339.232 86.7343 339.291 86.414 339.336 86.1162C339.383 85.8105 339.415 85.5288 339.434 85.2705C339.459 85.0776 339.48 84.8891 339.497 84.7055C339.527 84.3676 339.543 84.0449 339.543 83.7378C339.543 81.1469 338.959 78.8481 337.792 76.8413C336.66 74.8344 335.092 73.2656 333.085 72.1342C331.077 71.0034 328.761 70.4375 326.134 70.4375C323.434 70.4375 321.007 71.0395 318.853 72.2436C316.701 73.4477 314.986 75.1084 313.709 77.2246C312.469 79.3042 311.848 81.6762 311.848 84.3398C311.848 87.0034 312.486 89.3935 313.764 91.5097C315.041 93.6259 316.792 95.2866 319.019 96.4907ZM320.096 81.3735C320.205 80.9897 320.338 80.6279 320.496 80.2895C320.809 79.6645 321.186 79.123 321.629 78.665C321.784 78.5044 321.948 78.354 322.12 78.2138C322.316 78.0532 322.522 77.9057 322.74 77.7719C323.726 77.1513 324.875 76.8413 326.188 76.8413C327.429 76.8413 328.469 77.1152 329.308 77.6626C329.643 77.8579 329.945 78.0903 330.216 78.3603C330.653 78.7964 331.008 79.33 331.278 79.9614C331.461 80.3735 331.609 80.833 331.723 81.3403L320.096 81.3735Z" fill="#262626"/>
</svg>
