<svg width="335" height="166" viewBox="0 0 335 166" fill="none" xmlns="http://www.w3.org/2000/svg">
<path d="M99.8502 60.4563C99.8502 66.0457 95.3192 70.5767 89.7298 70.5767C84.1405 70.5767 79.6094 66.0457 79.6094 60.4563C79.6094 54.867 84.1405 50.3359 89.7298 50.3359C95.3192 50.3359 99.8502 54.867 99.8502 60.4563Z" fill="#232323"/>
<path d="M84.2745 104.997C65.8651 104.997 50.9414 90.0734 50.9414 71.664V55.6641C69.3508 55.6641 84.2753 70.5878 84.2753 88.9972L84.2745 104.997Z" fill="#232323"/>
<path d="M120.942 66.3359C102.533 66.3359 87.6094 81.2596 87.6094 99.669V115.669C106.019 115.669 120.942 100.745 120.942 82.3358V66.3359Z" fill="#232323"/>
<path d="M182.574 60.2812V100.414H174.525V74.3103L163.773 100.414H157.679L146.87 74.3103V100.414H138.82V60.2812H147.962L160.726 90.1214L173.49 60.2812H182.574Z" fill="#232323"/>
<path d="M192.316 64.7652C190.898 64.7652 189.709 64.3244 188.751 63.4428C187.831 62.5229 187.371 61.3921 187.371 60.0505C187.371 58.709 187.831 57.5974 188.751 56.7158C189.709 55.7959 190.898 55.3359 192.316 55.3359C193.734 55.3359 194.903 55.7959 195.823 56.7158C196.781 57.5974 197.261 58.709 197.261 60.0505C197.261 61.3921 196.781 62.5229 195.823 63.4428C194.903 64.3244 193.734 64.7652 192.316 64.7652ZM196.283 68.5599V100.413H188.234V68.5599H196.283Z" fill="#232323"/>
<path d="M219.589 68.0938C223.384 68.0938 226.449 69.3012 228.788 71.716C231.126 74.0924 232.296 77.4273 232.296 81.7203V100.407H224.245V82.8127C224.245 80.2829 223.614 78.3471 222.349 77.0055C221.084 75.6257 219.359 74.9358 217.174 74.9358C214.951 74.9358 213.188 75.6257 211.885 77.0055C210.62 78.3471 209.988 80.2829 209.988 82.8127V100.407H201.938V68.5537H209.988V72.521C211.061 71.1411 212.422 70.0677 214.07 69.3011C215.756 68.4962 217.596 68.0938 219.589 68.0938Z" fill="#232323"/>
<path d="M247.021 75.1686V90.5774C247.021 91.6507 247.27 92.4364 247.769 92.9347C248.305 93.3947 249.187 93.6247 250.414 93.6247H254.151V100.41H249.091C242.307 100.41 238.914 97.1127 238.914 90.5199V75.1686H232.941V68.5566H238.914V60.6797H247.021V68.5566V75.1686Z" fill="#232323"/>
<path d="M284.329 68.5547L264.608 115.471H256.041L262.94 99.6023L250.176 68.5547H259.203L267.425 90.8055L275.762 68.5547H284.329Z" fill="#232323"/>
</svg>
