<svg width="457" height="176" viewBox="0 0 457 176" fill="none" xmlns="http://www.w3.org/2000/svg">
<path d="M50.0391 100.856L75.4125 89.5625L90.017 98.0323L92.9674 125.819L74.97 125.671L77.6253 106.353L74.5274 104.57L59.3328 116.458L50.0391 100.856Z" fill="#232323"/>
<path d="M91.6406 96.8476L114.064 113.341L122.915 97.442L104.917 90.1609V86.5947L122.915 79.165L114.064 63.4141L91.6406 79.908V96.8476Z" fill="#232323"/>
<path d="M90.017 78.5682L92.9674 50.7812L74.97 51.0784L77.6253 70.3955L74.5274 72.1787L59.1853 60.2912L50.0391 75.745L75.4125 87.0381L90.017 78.5682Z" fill="#232323"/>
<path d="M182.959 84.9716V111.005H192.645V77.8281H178.539V84.9716H182.959Z" fill="#232323"/>
<path d="M182.654 73.1633C183.542 74.0914 184.894 74.5554 186.71 74.5554C188.527 74.5554 189.858 74.0914 190.705 73.1633C191.594 72.1942 192.037 70.9834 192.037 69.5308C192.037 68.0373 191.594 66.8265 190.705 65.8984C189.858 64.9298 188.527 64.4453 186.71 64.4453C184.894 64.4453 183.542 64.9298 182.654 65.8984C181.807 66.8265 181.383 68.0373 181.383 69.5308C181.383 70.9834 181.807 72.1942 182.654 73.1633Z" fill="#232323"/>
<path d="M149.238 110.276C151.982 111.527 155.352 112.153 159.347 112.153C163.101 112.153 166.329 111.567 169.034 110.397C171.738 109.227 173.816 107.592 175.269 105.493C176.763 103.354 177.509 100.872 177.509 98.0471C177.509 95.3028 176.804 92.9821 175.391 91.085C174.018 89.1479 172.102 87.6344 169.639 86.5449C167.177 85.4145 164.332 84.7082 161.103 84.426L157.713 84.1233C155.695 83.9615 154.242 83.417 153.354 82.4884C152.466 81.5603 152.022 80.4704 152.022 79.2196C152.022 78.2506 152.265 77.3629 152.748 76.5557C153.233 75.7081 153.959 75.0422 154.928 74.5577C155.937 74.0737 157.168 73.8314 158.621 73.8314C160.154 73.8314 161.426 74.1136 162.435 74.6791C162.657 74.7985 162.868 74.9262 163.066 75.0617L163.114 75.0953C163.188 75.1465 163.261 75.1997 163.332 75.2533C163.945 75.7217 164.433 76.2769 164.796 76.9189C165.32 77.807 165.584 78.7955 165.584 79.8855H175.269C175.269 76.9793 174.603 74.4568 173.272 72.3179C171.94 70.1385 170.023 68.4637 167.521 67.2928C165.058 66.082 162.092 65.4766 158.621 65.4766C155.311 65.4766 152.446 66.042 150.024 67.1719C147.603 68.2619 145.706 69.8358 144.334 71.8938C143.001 73.9523 142.335 76.3944 142.335 79.2196C142.335 83.1343 143.648 86.2822 146.271 88.6638C148.894 91.045 152.406 92.4172 156.805 92.7803L160.135 93.083C162.838 93.3253 164.796 93.8702 166.007 94.7174C167.217 95.5246 167.823 96.6345 167.823 98.0471C167.823 98.6964 167.717 99.3052 167.504 99.8741C167.346 100.296 167.13 100.696 166.855 101.074C166.208 101.921 165.26 102.587 164.009 103.072C162.758 103.556 161.204 103.798 159.347 103.798C157.289 103.798 155.614 103.516 154.323 102.95C153.031 102.345 152.063 101.558 151.416 100.59C150.811 99.6211 150.509 98.5721 150.509 97.4417H140.883C140.883 100.307 141.589 102.85 143.001 105.069C144.414 107.249 146.493 108.985 149.238 110.276Z" fill="#232323"/>
<path d="M214.257 111.426C210.907 111.426 208.203 111.023 206.145 110.215C204.086 109.368 202.573 107.975 201.604 106.038C200.676 104.06 200.212 101.397 200.212 98.047V84.9099H195.188V77.8269H200.212V68.8672H209.232V77.8269H218.919V84.9099H209.232V98.4107C209.232 99.9846 209.636 101.195 210.443 102.042C211.29 102.85 212.482 103.253 214.016 103.253H218.919V111.426H214.257Z" fill="#232323"/>
<path fill-rule="evenodd" clip-rule="evenodd" d="M230.579 110.703C232.758 111.671 235.261 112.156 238.086 112.156C240.87 112.156 243.333 111.671 245.472 110.703C247.611 109.734 249.387 108.382 250.799 106.647C252.212 104.911 253.161 102.933 253.644 100.714H244.745C244.342 101.723 243.575 102.57 242.445 103.256C241.315 103.942 239.861 104.286 238.086 104.286C236.986 104.286 236.003 104.155 235.137 103.895C234.478 103.697 233.887 103.424 233.364 103.075C232.153 102.268 231.265 101.137 230.7 99.6851C230.543 99.2713 230.409 98.8384 230.296 98.3876C230.181 97.9308 230.088 97.4556 230.018 96.9608H254.25V93.6915C254.25 90.6645 253.604 87.8797 252.313 85.3372C251.021 82.7538 249.144 80.6753 246.683 79.1013C244.261 77.4869 241.274 76.6797 237.722 76.6797C235.018 76.6797 232.596 77.1642 230.457 78.1328C228.36 79.0609 226.604 80.3321 225.191 81.9466C223.779 83.561 222.689 85.3977 221.921 87.4561C221.195 89.4737 220.832 91.5926 220.832 93.8124V95.0232C220.832 97.1626 221.195 99.2611 221.921 101.319C222.689 103.337 223.779 105.173 225.191 106.828C226.644 108.443 228.439 109.734 230.579 110.703ZM230.185 90.9745C230.212 90.8463 230.24 90.7201 230.271 90.5958C230.355 90.2536 230.452 89.9255 230.562 89.6121C230.624 89.4337 230.69 89.2597 230.761 89.0905C231.366 87.597 232.254 86.4671 233.424 85.7004C233.862 85.4137 234.336 85.1807 234.845 85.0014C235.701 84.7006 236.661 84.55 237.722 84.55C239.378 84.55 240.749 84.9336 241.839 85.7004C242.969 86.4267 243.817 87.4961 244.382 88.9087C244.428 89.0228 244.471 89.1388 244.513 89.2563C244.58 89.4434 244.642 89.6355 244.7 89.8324C244.785 90.1254 244.86 90.4286 244.926 90.742C244.974 90.973 245.015 91.2095 245.052 91.4517H230.092C230.12 91.2899 230.151 91.131 230.185 90.9745Z" fill="#232323"/>
<path d="M258.246 111.002V77.8259H265.935V86.1817C266.039 85.6849 266.158 85.2082 266.291 84.751C266.405 84.3659 266.527 83.9945 266.661 83.6377C267.509 81.3774 268.78 79.6826 270.475 78.5522C272.17 77.3818 274.248 76.7969 276.711 76.7969H277.134C279.637 76.7969 281.715 77.3818 283.37 78.5522C285.065 79.6826 286.337 81.3774 287.184 83.6377L287.251 83.8083L287.308 83.9643C287.346 83.8541 287.386 83.7454 287.426 83.6377C288.314 81.3774 289.606 79.6826 291.301 78.5522C292.996 77.3818 295.075 76.7969 297.537 76.7969H297.961C300.462 76.7969 302.561 77.3818 304.256 78.5522C305.992 79.6826 307.304 81.3774 308.191 83.6377C309.079 85.898 309.524 88.7232 309.524 92.1134V111.002H299.837V91.5684C299.837 89.7522 299.353 88.2791 298.384 87.1492C297.456 86.0188 296.124 85.4539 294.389 85.4539C292.653 85.4539 291.281 86.0393 290.272 87.2097C289.263 88.3396 288.758 89.8531 288.758 91.7502V111.002H279.011V91.5684C279.011 89.7522 278.527 88.2791 277.558 87.1492C276.63 86.0188 275.318 85.4539 273.624 85.4539C271.847 85.4539 270.455 86.0393 269.446 87.2097C268.437 88.3396 267.932 89.8531 267.932 91.7502V111.002H258.246Z" fill="#232323"/>
<path fill-rule="evenodd" clip-rule="evenodd" d="M335.401 104.61V111.003H343.089V90.6607C343.089 87.5932 342.484 85.0911 341.273 83.1535C340.062 81.1759 338.287 79.7029 335.946 78.7344C333.646 77.7658 330.8 77.2812 327.41 77.2812C326.675 77.2812 325.908 77.2891 325.108 77.3052C324.636 77.315 324.151 77.3271 323.656 77.3418C322.324 77.3822 321.032 77.4427 319.782 77.5236L318.826 77.5879C318.335 77.622 317.874 77.6557 317.44 77.6898C317.114 77.7151 316.805 77.7404 316.513 77.7657V85.9388C317.764 85.8579 319.156 85.7769 320.69 85.6965C321.119 85.674 321.544 85.6532 321.966 85.6337C322.576 85.6054 323.177 85.5809 323.772 85.5595C324.242 85.5424 324.708 85.5273 325.17 85.5146C326.622 85.4742 327.793 85.4542 328.681 85.4542C330.457 85.4542 331.748 85.8778 332.556 86.7255C333.363 87.5731 333.766 88.8444 333.766 90.5397V90.6607H327.773C324.827 90.6607 322.224 91.0443 319.963 91.8111C317.703 92.5374 315.947 93.6877 314.697 95.2617C313.445 96.7957 312.82 98.7731 312.82 101.195C312.82 103.415 313.324 105.332 314.333 106.947C315.342 108.52 316.734 109.731 318.51 110.578C320.327 111.426 322.426 111.85 324.806 111.85C327.107 111.85 329.044 111.426 330.619 110.578C332.233 109.731 333.484 108.52 334.372 106.947C334.528 106.681 334.674 106.406 334.81 106.12C335.002 105.716 335.173 105.291 335.324 104.845L335.401 104.61ZM333.766 98.7128V96.0489H327.712C326.017 96.0489 324.706 96.4725 323.778 97.3202C322.89 98.1274 322.445 99.2373 322.445 100.65C322.445 101.315 322.556 101.919 322.777 102.464C323 103.01 323.333 103.495 323.778 103.919C324.706 104.727 326.017 105.13 327.712 105.13C328.035 105.13 328.347 105.114 328.648 105.083C328.894 105.057 329.133 105.02 329.364 104.973C329.808 104.883 330.227 104.753 330.619 104.585C331.507 104.182 332.233 103.516 332.797 102.587C333.363 101.659 333.686 100.367 333.766 98.7128Z" fill="#232323"/>
<path d="M348.887 111.006V77.8298H356.576V88.7803C356.944 85.6543 357.873 83.1338 359.361 81.2201C361.379 78.6776 364.284 77.4062 368.079 77.4062H369.35V85.7606H366.928C364.265 85.7606 362.206 86.4868 360.753 87.9399C359.3 89.3525 358.573 91.4111 358.573 94.1149V111.006H348.887Z" fill="#232323"/>
<path d="M381.631 95.5083H384.84L395.313 111.007H406.21L392.93 91.9729L403.849 77.8307H393.679L381.631 93.6054V66.8125H371.945V111.007H381.631V95.5083Z" fill="#232323"/>
</svg>
