<svg width="462" height="184" viewBox="0 0 462 184" fill="none" xmlns="http://www.w3.org/2000/svg">
<path fill-rule="evenodd" clip-rule="evenodd" d="M116.674 59.8419H75.4648V42.3594H134.156V101.05H116.674V59.8419Z" fill="#232323"/>
<path fill-rule="evenodd" clip-rule="evenodd" d="M84.4852 94.6324C81.8156 92.8486 78.677 91.8965 75.4662 91.8965V74.4141C82.1347 74.4141 88.6534 76.3915 94.198 80.0963C99.7426 83.8011 104.064 89.0668 106.616 95.2277C109.168 101.389 109.836 108.168 108.535 114.708C107.234 121.248 104.023 127.256 99.3072 131.971C94.5919 136.687 88.5842 139.898 82.0439 141.199C75.5036 142.5 68.7244 141.832 62.5635 139.28C56.4027 136.728 51.137 132.407 47.4322 126.862C43.7274 121.317 41.75 114.799 41.75 108.13H59.2325C59.2325 111.341 60.1846 114.48 61.9684 117.149C63.7521 119.819 66.2875 121.9 69.2538 123.128C72.2202 124.357 75.4842 124.679 78.6333 124.052C81.7823 123.426 84.6749 121.88 86.9452 119.609C89.2155 117.339 90.7617 114.446 91.3881 111.297C92.0144 108.148 91.693 104.884 90.4643 101.918C89.2356 98.9516 87.1549 96.4162 84.4852 94.6324Z" fill="#232323"/>
<path d="M161.629 128.146V54.7969H188.768C194.636 54.7969 199.491 55.7749 203.333 57.7309C207.175 59.6868 210.039 62.3763 211.925 65.7992C213.811 69.2221 214.754 73.0642 214.754 77.3254C214.754 81.377 213.846 85.1142 212.03 88.5372C210.213 91.8902 207.384 94.6146 203.542 96.7103C199.7 98.7361 194.775 99.749 188.768 99.749H175.041V128.146H161.629ZM175.041 88.8515H187.929C192.61 88.8515 195.963 87.8386 197.989 85.8128C200.084 83.7171 201.132 80.888 201.132 77.3254C201.132 73.6929 200.084 70.8637 197.989 68.8379C195.963 66.7422 192.61 65.6944 187.929 65.6944H175.041V88.8515Z" fill="#232323"/>
<path d="M242.316 129.401C237.077 129.401 232.432 128.283 228.38 126.048C224.328 123.813 221.15 120.669 218.845 116.617C216.54 112.566 215.387 107.886 215.387 102.577C215.387 97.1981 216.505 92.4129 218.74 88.2216C221.045 84.0303 224.189 80.782 228.171 78.4768C232.222 76.1017 236.972 74.9141 242.421 74.9141C247.521 74.9141 252.026 76.0318 255.938 78.2672C259.85 80.5026 262.889 83.5762 265.054 87.4881C267.29 91.3302 268.407 95.6263 268.407 100.376C268.407 101.144 268.372 101.948 268.303 102.786C268.303 103.624 268.268 104.498 268.198 105.406H228.694C228.974 109.457 230.371 112.636 232.886 114.941C235.47 117.246 238.579 118.399 242.212 118.399C244.936 118.399 247.206 117.805 249.022 116.617C250.909 115.36 252.306 113.753 253.214 111.797H266.836C265.858 115.081 264.216 118.084 261.911 120.809C259.675 123.463 256.881 125.559 253.528 127.096C250.245 128.633 246.508 129.401 242.316 129.401ZM242.421 85.8116C239.138 85.8116 236.239 86.7546 233.724 88.6407C231.209 90.457 229.603 93.2512 228.904 97.0234H254.786C254.576 93.6005 253.319 90.8761 251.013 88.8503C248.708 86.8245 245.844 85.8116 242.421 85.8116Z" fill="#232323"/>
<path d="M274.449 128.144V76.1715H286.289L287.337 84.9733C288.944 81.8997 291.249 79.4547 294.253 77.6385C297.326 75.8223 300.924 74.9141 305.045 74.9141C311.472 74.9141 316.467 76.9399 320.029 80.9916C323.592 85.0432 325.373 90.9809 325.373 98.8047V128.144H311.961V100.062C311.961 95.5914 311.053 92.1685 309.237 89.7934C307.421 87.4183 304.591 86.2307 300.749 86.2307C296.977 86.2307 293.869 87.558 291.424 90.2125C289.049 92.867 287.861 96.5694 287.861 101.319V128.144H274.449Z" fill="#232323"/>
<path d="M356.117 128.143C350.668 128.143 346.303 126.815 343.02 124.161C339.737 121.506 338.094 116.791 338.094 110.015V87.3823H329.188V76.1705H338.094L339.666 62.2344H351.507V76.1705H365.547V87.3823H351.507V110.12C351.507 112.635 352.03 114.381 353.078 115.359C354.196 116.267 356.082 116.721 358.736 116.721H365.233V128.143H356.117Z" fill="#232323"/>
<path d="M389.744 129.401C385.273 129.401 381.605 128.702 378.741 127.305C375.877 125.838 373.747 123.917 372.349 121.542C370.952 119.167 370.254 116.548 370.254 113.684C370.254 108.864 372.14 104.952 375.912 101.948C379.684 98.9444 385.343 97.4425 392.887 97.4425H406.09V96.1851C406.09 92.6225 405.077 90.0029 403.051 88.3264C401.025 86.6499 398.51 85.8116 395.507 85.8116C392.782 85.8116 390.407 86.4752 388.381 87.8025C386.356 89.0599 385.098 90.946 384.609 93.4608H371.511C371.86 89.6886 373.118 86.4054 375.283 83.6112C377.519 80.8169 380.383 78.6863 383.876 77.2194C387.368 75.6825 391.28 74.9141 395.611 74.9141C403.016 74.9141 408.849 76.7653 413.11 80.4677C417.371 84.17 419.502 89.4092 419.502 96.1851V128.144H408.081L406.823 119.761C405.286 122.555 403.121 124.86 400.327 126.677C397.602 128.493 394.075 129.401 389.744 129.401ZM392.782 118.923C396.624 118.923 399.593 117.665 401.689 115.151C403.854 112.636 405.217 109.527 405.775 105.825H394.354C390.791 105.825 388.242 106.488 386.705 107.816C385.168 109.073 384.4 110.645 384.4 112.531C384.4 114.557 385.168 116.129 386.705 117.246C388.242 118.364 390.267 118.923 392.782 118.923Z" fill="#232323"/>
</svg>
