<svg width="678" height="230" viewBox="0 0 678 230" fill="none" xmlns="http://www.w3.org/2000/svg">
<path d="M206.273 157.467L212.758 155.846V86.6797L206.273 85.0586V83.4375H235.453C246.404 83.4375 254.438 85.2027 259.553 88.7331C264.741 92.1914 267.334 96.7304 267.334 102.35C267.334 106.241 266.217 109.375 263.984 111.752C261.751 114.13 258.905 115.895 255.446 117.048C251.772 118.345 247.809 119.029 243.558 119.101V119.642C248.818 119.858 253.393 120.65 257.284 122.019C261.246 123.316 264.524 125.334 267.118 128.071C269.784 130.809 271.117 134.304 271.117 138.554C271.117 144.967 268.487 150.01 263.227 153.685C257.968 157.287 249.43 159.088 237.614 159.088H206.273V157.467ZM235.453 118.021C237.831 118.021 240.028 117.372 242.045 116.075C244.135 114.706 245.792 112.833 247.017 110.456C248.314 108.006 248.962 105.304 248.962 102.35C248.962 99.1801 248.314 96.3702 247.017 93.9205C245.792 91.4709 244.135 89.5616 242.045 88.1927C240.028 86.8238 237.831 86.1393 235.453 86.1393H230.59V118.021H235.453ZM237.614 156.386C242.081 156.386 245.72 154.801 248.53 151.631C251.34 148.461 252.744 144.102 252.744 138.554C252.744 133.007 251.34 128.648 248.53 125.478C245.72 122.308 242.081 120.722 237.614 120.722H230.59V156.386H237.614Z" fill="#232323"/>
<path d="M273.246 157.467L279.731 155.846V86.6797L273.246 85.0586V83.4375H287.296C293.78 83.4375 297.022 86.6797 297.022 93.164V155.846L303.507 157.467V159.088H273.246V157.467Z" fill="#232323"/>
<path d="M333.209 160.708C324.275 160.708 317.25 158.187 312.135 153.143C307.091 148.028 304.57 141.003 304.57 132.069C304.57 123.135 307.091 116.146 312.135 111.103C317.25 105.988 324.275 103.43 333.209 103.43C342.143 103.43 349.131 105.988 354.175 111.103C359.29 116.146 361.848 123.135 361.848 132.069C361.848 141.003 359.29 148.028 354.175 153.143C349.131 158.187 342.143 160.708 333.209 160.708ZM333.209 158.547C336.091 158.547 338.504 156.529 340.45 152.495C342.467 148.46 343.476 141.651 343.476 132.069C343.476 122.487 342.467 115.678 340.45 111.643C338.504 107.609 336.091 105.591 333.209 105.591C330.327 105.591 327.877 107.609 325.86 111.643C323.914 115.678 322.942 122.487 322.942 132.069C322.942 141.651 323.914 148.46 325.86 152.495C327.877 156.529 330.327 158.547 333.209 158.547Z" fill="#232323"/>
<path d="M390.525 160.708C386.058 160.708 382.059 159.736 378.529 157.79C376.8 156.854 375.395 155.845 374.314 154.764C373.161 156.349 371.901 157.574 370.532 158.439C369.883 158.871 369.163 159.267 368.37 159.628H365.668V141.255H369.991C370.928 144.281 372.297 147.091 374.098 149.685C377.917 155.233 382.672 158.006 388.364 158.006C391.39 158.006 393.659 157.286 395.172 155.845C396.757 154.332 397.55 152.171 397.55 149.361C397.55 146.983 396.469 145.002 394.308 143.417C392.218 141.76 388.904 139.742 384.365 137.365C380.474 135.419 377.304 133.69 374.855 132.177C372.477 130.592 370.424 128.647 368.694 126.341C367.037 123.964 366.209 121.19 366.209 118.02C366.209 113.697 368.046 110.202 371.72 107.537C375.467 104.799 381.195 103.43 388.904 103.43C392.722 103.43 396.253 104.439 399.495 106.456C401.08 107.393 402.449 108.365 403.602 109.374C404.538 108.077 405.799 106.852 407.384 105.699C408.609 104.979 409.33 104.583 409.546 104.511H412.248V122.883H407.925C406.844 119.785 405.511 117.011 403.926 114.561C400.324 108.942 396.037 106.132 391.065 106.132C389.12 106.132 387.463 106.852 386.094 108.293C384.725 109.734 384.041 111.535 384.041 113.697C384.041 116.435 385.193 118.74 387.499 120.613C389.805 122.415 393.299 124.504 397.982 126.882C401.801 128.827 404.827 130.556 407.06 132.069C409.366 133.51 411.311 135.311 412.896 137.473C414.553 139.634 415.382 142.156 415.382 145.038C415.382 155.485 407.096 160.708 390.525 160.708Z" fill="#232323"/>
<path d="M443.486 160.708C439.019 160.708 435.02 159.736 431.49 157.79C429.76 156.854 428.356 155.845 427.275 154.764C426.122 156.349 424.861 157.574 423.492 158.439C422.844 158.871 422.123 159.267 421.331 159.628H418.629V141.255H422.952C423.889 144.281 425.257 147.091 427.059 149.685C430.877 155.233 435.632 158.006 441.324 158.006C444.35 158.006 446.62 157.286 448.133 155.845C449.718 154.332 450.51 152.171 450.51 149.361C450.51 146.983 449.43 145.002 447.268 143.417C445.179 141.76 441.865 139.742 437.326 137.365C433.435 135.419 430.265 133.69 427.815 132.177C425.438 130.592 423.384 128.647 421.655 126.341C419.998 123.964 419.169 121.19 419.169 118.02C419.169 113.697 421.007 110.202 424.681 107.537C428.428 104.799 434.155 103.43 441.865 103.43C445.683 103.43 449.213 104.439 452.456 106.456C454.041 107.393 455.41 108.365 456.562 109.374C457.499 108.077 458.76 106.852 460.345 105.699C461.57 104.979 462.29 104.583 462.506 104.511H465.208V122.883H460.885C459.805 119.785 458.472 117.011 456.887 114.561C453.284 108.942 448.997 106.132 444.026 106.132C442.081 106.132 440.424 106.852 439.055 108.293C437.686 109.734 437.001 111.535 437.001 113.697C437.001 116.435 438.154 118.74 440.46 120.613C442.765 122.415 446.26 124.504 450.943 126.882C454.761 128.827 457.787 130.556 460.021 132.069C462.326 133.51 464.272 135.311 465.857 137.473C467.514 139.634 468.342 142.156 468.342 145.038C468.342 155.485 460.057 160.708 443.486 160.708Z" fill="#232323"/>
<path d="M499.686 160.708C490.752 160.708 483.728 158.187 478.612 153.143C473.569 148.028 471.047 141.003 471.047 132.069C471.047 123.135 473.569 116.146 478.612 111.103C483.728 105.988 490.752 103.43 499.686 103.43C508.62 103.43 515.609 105.988 520.652 111.103C525.768 116.146 528.326 123.135 528.326 132.069C528.326 141.003 525.768 148.028 520.652 153.143C515.609 158.187 508.62 160.708 499.686 160.708ZM499.686 158.547C502.568 158.547 504.982 156.529 506.927 152.495C508.945 148.46 509.953 141.651 509.953 132.069C509.953 122.487 508.945 115.678 506.927 111.643C504.982 107.609 502.568 105.591 499.686 105.591C496.805 105.591 494.355 107.609 492.338 111.643C490.392 115.678 489.42 122.487 489.42 132.069C489.42 141.651 490.392 148.46 492.338 152.495C494.355 156.529 496.805 158.547 499.686 158.547Z" fill="#232323"/>
<path d="M531.605 157.466L538.089 155.845V108.293L531.605 106.672V105.051H541.331C545.582 105.051 548.932 106.42 551.382 109.158C552.319 110.238 553.111 111.571 553.76 113.156C554.84 111.139 555.993 109.518 557.218 108.293C560.46 105.051 564.171 103.43 568.349 103.43C572.528 103.43 576.203 104.367 579.373 106.24C582.543 108.041 584.992 110.527 586.722 113.697C587.802 111.607 588.955 109.914 590.18 108.617C593.494 105.159 597.205 103.43 601.311 103.43C605.13 103.43 608.552 104.222 611.578 105.807C614.676 107.393 617.054 109.554 618.711 112.292C620.44 115.03 621.305 118.02 621.305 121.262V155.845L627.789 157.466V159.087H613.74C607.255 159.087 604.013 155.845 604.013 149.361V121.262C604.013 116.579 603.293 113.084 601.852 110.779C600.411 108.401 598.791 107.212 596.99 107.212C594.9 107.212 592.774 108.653 590.612 111.535C589.748 112.904 588.991 114.345 588.343 115.858V155.845L594.827 157.466V159.087H564.567V157.466L571.051 155.845V121.262C571.051 116.579 570.332 113.084 568.891 110.779C567.45 108.401 565.828 107.212 564.026 107.212C561.937 107.212 559.812 108.653 557.65 111.535C556.786 112.904 556.029 114.345 555.381 115.858V155.845L561.865 157.466V159.087H531.605V157.466Z" fill="#232323"/>
<path fill-rule="evenodd" clip-rule="evenodd" d="M118.31 179.724C117.613 179.861 116.89 179.907 116.157 179.851C93.5193 178.133 72.0921 165.629 59.8838 144.484C47.6753 123.338 47.56 98.5288 57.392 78.0646C58.8194 75.0936 61.9137 73.3072 65.2004 73.5566C73.6365 74.1967 81.9045 76.3347 89.59 79.8597C95.3891 68.5522 103.969 58.906 114.427 51.8237C117.156 49.9755 120.726 49.9755 123.455 51.8237C133.771 58.8098 142.259 68.2907 148.054 79.4C155.448 76.1485 163.357 74.1684 171.42 73.5566C174.707 73.3072 177.801 75.0936 179.228 78.0646C189.06 98.5288 188.945 123.338 176.737 144.484C164.528 165.629 143.101 178.133 120.463 179.851C119.73 179.907 119.007 179.861 118.31 179.724ZM134.896 166.905C148.466 162.29 160.468 152.925 168.19 139.55C178.469 121.746 178.804 100.927 170.88 83.5077C164.374 84.1389 158.005 85.803 152.031 88.4304C154.945 96.4473 156.535 105.1 156.535 114.125C156.535 134.692 148.277 153.33 134.896 166.905ZM139.317 83.9888C134.476 74.6947 127.462 66.7081 118.941 60.6992C110.237 66.8368 103.106 75.0377 98.2564 84.5877C105.975 89.5236 112.832 96.0166 118.31 103.928C124.013 95.6924 131.21 88.9939 139.317 83.9888ZM123.901 113.499C128.86 105.041 135.538 98.2064 143.24 93.1858C145.463 99.7597 146.667 106.802 146.667 114.125C146.667 131.031 140.249 146.44 129.698 158.047C132.553 143.385 130.826 127.769 123.901 113.499ZM112.719 113.499C107.984 105.421 101.679 98.8244 94.4129 93.8741C92.3364 100.25 91.2146 107.057 91.2146 114.125C91.2146 130.164 96.991 144.856 106.593 156.231C104.219 142.101 106.079 127.182 112.719 113.499ZM118.31 162.87C122.015 151.089 122.167 138.238 118.31 126.055C114.453 138.238 114.606 151.089 118.31 162.87ZM68.43 139.55C76.503 153.532 89.2538 163.133 103.583 167.505C89.8504 153.882 81.3463 134.996 81.3463 114.125C81.3463 105.284 82.8722 96.7993 85.6749 88.9201C79.3885 86.0091 72.6421 84.1772 65.74 83.5077C57.8164 100.927 58.1511 121.746 68.43 139.55Z" fill="#232323"/>
</svg>
