<svg width="534" height="209" viewBox="0 0 534 209" fill="none" xmlns="http://www.w3.org/2000/svg">
<path d="M185.787 116.808H169.804L167.159 124.455H158.707L173.138 84.2656H182.51L196.942 124.455H188.432L185.787 116.808ZM183.603 110.369L177.796 93.5798L171.988 110.369H183.603Z" fill="#232323"/>
<path d="M230.107 92.6094V124.462H222V120.438C220.965 121.818 219.605 122.91 217.918 123.715C216.27 124.482 214.468 124.865 212.514 124.865C210.022 124.865 207.818 124.347 205.902 123.312C203.985 122.239 202.471 120.687 201.359 118.655C200.286 116.585 199.75 114.132 199.75 111.296V92.6094H207.799V110.146C207.799 112.676 208.431 114.631 209.696 116.011C210.961 117.352 212.686 118.023 214.871 118.023C217.094 118.023 218.838 117.352 220.103 116.011C221.368 114.631 222 112.676 222 110.146V92.6094H230.107Z" fill="#232323"/>
<path d="M245.12 99.2155V114.625C245.12 115.698 245.369 116.484 245.868 116.982C246.404 117.442 247.286 117.672 248.512 117.672H252.25V124.456H247.19C240.406 124.456 237.013 121.16 237.013 114.567V99.2155H233.219V92.6035H237.013V84.7266H245.12V92.6035H252.25V99.2155H245.12Z" fill="#232323"/>
<path d="M269.883 124.974C266.817 124.974 264.057 124.303 261.604 122.961C259.151 121.582 257.215 119.646 255.797 117.154C254.417 114.663 253.727 111.788 253.727 108.53C253.727 105.272 254.436 102.397 255.854 99.9053C257.311 97.4138 259.285 95.4973 261.776 94.1557C264.268 92.7758 267.047 92.0859 270.113 92.0859C273.18 92.0859 275.959 92.7758 278.45 94.1557C280.942 95.4973 282.896 97.4138 284.315 99.9053C285.771 102.397 286.499 105.272 286.499 108.53C286.499 111.788 285.752 114.663 284.257 117.154C282.801 119.646 280.807 121.582 278.278 122.961C275.786 124.303 272.988 124.974 269.883 124.974ZM269.883 117.959C271.34 117.959 272.701 117.614 273.965 116.924C275.269 116.196 276.304 115.123 277.07 113.705C277.837 112.286 278.22 110.562 278.22 108.53C278.22 105.502 277.415 103.183 275.805 101.573C274.234 99.9244 272.298 99.1003 269.998 99.1003C267.698 99.1003 265.763 99.9244 264.191 101.573C262.658 103.183 261.891 105.502 261.891 108.53C261.891 111.558 262.639 113.896 264.134 115.545C265.667 117.154 267.583 117.959 269.883 117.959Z" fill="#232323"/>
<path d="M329.662 92.1484C333.572 92.1484 336.715 93.3558 339.091 95.7706C341.506 98.1471 342.714 101.482 342.714 105.775V124.461H334.664V106.868C334.664 104.376 334.032 102.479 332.767 101.176C331.502 99.8336 329.777 99.1628 327.592 99.1628C325.407 99.1628 323.663 99.8336 322.36 101.176C321.095 102.479 320.463 104.376 320.463 106.868V124.461H312.413V106.868C312.413 104.376 311.781 102.479 310.516 101.176C309.251 99.8336 307.526 99.1628 305.342 99.1628C303.118 99.1628 301.355 99.8336 300.052 101.176C298.787 102.479 298.155 104.376 298.155 106.868V124.461H290.105V92.6083H298.155V96.4605C299.189 95.119 300.512 94.0649 302.122 93.2983C303.77 92.5317 305.571 92.1484 307.526 92.1484C310.018 92.1484 312.241 92.685 314.196 93.7582C316.151 94.7932 317.665 96.288 318.738 98.2429C319.773 96.403 321.268 94.9273 323.223 93.8157C325.216 92.7041 327.362 92.1484 329.662 92.1484Z" fill="#232323"/>
<path d="M345.98 108.415C345.98 105.195 346.613 102.34 347.878 99.8478C349.181 97.3563 350.925 95.4398 353.11 94.0982C355.333 92.7566 357.805 92.0859 360.527 92.0859C362.903 92.0859 364.973 92.565 366.736 93.5232C368.538 94.4815 369.975 95.6889 371.048 97.1455V92.6033H379.155V124.456H371.048V119.799C370.014 121.294 368.576 122.54 366.736 123.536C364.935 124.495 362.846 124.974 360.469 124.974C357.786 124.974 355.333 124.284 353.11 122.904C350.925 121.524 349.181 119.588 347.878 117.097C346.613 114.567 345.98 111.673 345.98 108.415ZM371.048 108.53C371.048 106.575 370.665 104.908 369.899 103.528C369.132 102.11 368.097 101.037 366.794 100.308C365.491 99.5411 364.091 99.1578 362.597 99.1578C361.102 99.1578 359.722 99.522 358.457 100.251C357.192 100.979 356.157 102.052 355.352 103.47C354.586 104.85 354.202 106.499 354.202 108.415C354.202 110.332 354.586 112.018 355.352 113.475C356.157 114.893 357.192 115.985 358.457 116.752C359.76 117.519 361.14 117.902 362.597 117.902C364.091 117.902 365.491 117.538 366.794 116.809C368.097 116.043 369.132 114.97 369.899 113.59C370.665 112.171 371.048 110.485 371.048 108.53Z" fill="#232323"/>
<path d="M394.09 99.2155V114.625C394.09 115.698 394.339 116.484 394.837 116.982C395.374 117.442 396.256 117.672 397.482 117.672H401.219V124.456H396.16C389.375 124.456 385.983 121.16 385.983 114.567V99.2155H382.188V92.6035H385.983V84.7266H394.09V92.6035H401.219V99.2155H394.09Z" fill="#232323"/>
<path d="M408.792 88.8121C407.374 88.8121 406.186 88.3713 405.228 87.4897C404.308 86.5698 403.848 85.439 403.848 84.0975C403.848 82.7559 404.308 81.6443 405.228 80.7627C406.186 79.8428 407.374 79.3828 408.792 79.3828C410.21 79.3828 411.38 79.8428 412.299 80.7627C413.258 81.6443 413.737 82.7559 413.737 84.0975C413.737 85.439 413.258 86.5698 412.299 87.4897C411.38 88.3713 410.21 88.8121 408.792 88.8121ZM412.759 92.6068V124.459H404.71V92.6068H412.759Z" fill="#232323"/>
<path d="M432.554 124.974C429.488 124.974 426.728 124.303 424.275 122.961C421.822 121.582 419.886 119.646 418.468 117.154C417.088 114.663 416.398 111.788 416.398 108.53C416.398 105.272 417.107 102.397 418.525 99.9053C419.982 97.4138 421.956 95.4973 424.447 94.1557C426.939 92.7758 429.718 92.0859 432.784 92.0859C435.851 92.0859 438.63 92.7758 441.121 94.1557C443.613 95.4973 445.568 97.4138 446.986 99.9053C448.442 102.397 449.171 105.272 449.171 108.53C449.171 111.788 448.423 114.663 446.928 117.154C445.472 119.646 443.479 121.582 440.949 122.961C438.457 124.303 435.659 124.974 432.554 124.974ZM432.554 117.959C434.011 117.959 435.372 117.614 436.637 116.924C437.94 116.196 438.975 115.123 439.741 113.705C440.508 112.286 440.891 110.562 440.891 108.53C440.891 105.502 440.086 103.183 438.476 101.573C436.905 99.9244 434.969 99.1003 432.669 99.1003C430.37 99.1003 428.434 99.9244 426.862 101.573C425.329 103.183 424.562 105.502 424.562 108.53C424.562 111.558 425.31 113.896 426.805 115.545C428.338 117.154 430.255 117.959 432.554 117.959Z" fill="#232323"/>
<path d="M470.428 92.1484C474.223 92.1484 477.29 93.3558 479.628 95.7706C481.966 98.1471 483.135 101.482 483.135 105.775V124.461H475.086V106.868C475.086 104.338 474.453 102.402 473.188 101.061C471.923 99.6803 470.198 98.9903 468.014 98.9903C465.79 98.9903 464.027 99.6803 462.724 101.061C461.459 102.402 460.827 104.338 460.827 106.868V124.461H452.777V92.6083H460.827V96.5755C461.9 95.1956 463.261 94.1224 464.909 93.3558C466.595 92.5508 468.435 92.1484 470.428 92.1484Z" fill="#232323"/>
<path d="M92.753 91.7683V82.0843C80.9431 82.4907 71.4939 92.1926 71.4939 104.101V105.643H50.8047V104.101C50.8047 80.7657 69.5155 61.8001 92.753 61.3887V50.9141L128.211 71.7266L92.753 91.7683Z" fill="#232323"/>
<path d="M110.927 104.102V105.644C110.927 117.553 101.479 127.254 89.6692 127.661V117.978L54.2109 138.019L89.6692 158.832V148.357C112.906 147.945 131.617 128.98 131.617 105.644V104.102H110.927Z" fill="#232323"/>
</svg>
